# This file was created with Minddesk Qubicle 2.0
# Get Qubicle at www.minddesk.com

mtllib TestCube.mtl

vn 0.0 0.0 1.0
vn 0.0 0.0 -1.0
vn -1.0 0.0 0.0
vn 1.0 0.0 0.0
vn 0.0 1.0 0.0
vn 0.0 -1.0 0.0

v 7.50000 13.50000 -7.50000
v 7.50000 -0.50000 -7.50000
v -7.50000 -0.50000 -7.50000
v -7.50000 13.50000 -7.50000
v 6.50000 14.50000 -6.50000
v 6.50000 13.50000 -6.50000
v -6.50000 13.50000 -6.50000
v -6.50000 14.50000 -6.50000
v -6.50000 13.50000 7.50000
v -6.50000 -0.50000 7.50000
v 7.50000 -0.50000 7.50000
v 7.50000 13.50000 7.50000
v -7.50000 13.50000 6.50000
v -7.50000 -0.50000 6.50000
v -6.50000 -0.50000 6.50000
v -6.50000 13.50000 6.50000
v -6.50000 14.50000 6.50000
v 6.50000 13.50000 6.50000
v 6.50000 14.50000 6.50000
v -7.50000 13.50000 -6.50000
v 7.50000 13.50000 6.50000
v 7.50000 13.50000 -6.50000
v 7.50000 -0.50000 6.50000

vt 0.01563 0.23438
vt 0.01563 0.01563
vt 0.25000 0.01563
vt 0.25000 0.23438
vt 0.28125 0.23438
vt 0.28125 0.01563
vt 0.51563 0.01563
vt 0.51563 0.23438
vt 0.54688 0.23438
vt 0.54688 0.01563
vt 0.78125 0.01563
vt 0.78125 0.23438
vt 0.01563 0.48438
vt 0.01563 0.26563
vt 0.23438 0.26563
vt 0.23438 0.48438
vt 0.26563 0.48438
vt 0.26563 0.26563
vt 0.48438 0.26563
vt 0.48438 0.48438
vt 0.81250 0.23438
vt 0.81250 0.01563
vt 0.82813 0.01563
vt 0.82813 0.23438
vt 0.85938 0.23438
vt 0.85938 0.01563
vt 0.87500 0.01563
vt 0.87500 0.23438
vt 0.51563 0.46875
vt 0.51563 0.26563
vt 0.71875 0.26563
vt 0.71875 0.46875
vt 0.90625 0.21875
vt 0.90625 0.01563
vt 0.92188 0.01563
vt 0.92188 0.21875
vt 0.95313 0.21875
vt 0.95313 0.01563
vt 0.96875 0.01563
vt 0.96875 0.21875
vt 0.75000 0.28125
vt 0.75000 0.26563
vt 0.98438 0.26563
vt 0.98438 0.28125
vt 0.75000 0.32813
vt 0.75000 0.31250
vt 0.96875 0.31250
vt 0.96875 0.32813
vt 0.75000 0.37500
vt 0.75000 0.35938
vt 0.96875 0.35938
vt 0.96875 0.37500
vt 0.75000 0.42188
vt 0.75000 0.40625
vt 0.95313 0.40625
vt 0.95313 0.42188
vt 0.75000 0.46875
vt 0.75000 0.45313
vt 0.95313 0.45313
vt 0.95313 0.46875
vt 0.01563 0.53125
vt 0.01563 0.51563
vt 0.21875 0.51563
vt 0.21875 0.53125
vt 0.25000 0.53125
vt 0.25000 0.51563
vt 0.45313 0.51563
vt 0.45313 0.53125

g Box
usemtl TestCube_Material
f  1/5/2 2/6/2 3/7/2 4/8/2
f  5/53/2 6/54/2 7/55/2 8/56/2
f  9/13/1 10/14/1 11/15/1 12/16/1
f  13/21/1 14/22/1 15/23/1 16/24/1
f  17/65/1 16/66/1 18/67/1 19/68/1
f  4/17/3 3/18/3 14/19/3 13/20/3
f  16/25/3 15/26/3 10/27/3 9/28/3
f  8/61/3 7/62/3 16/63/3 17/64/3
f  12/1/4 11/2/4 2/3/4 1/4/4
f  19/57/4 18/58/4 6/59/4 5/60/4
f  8/29/5 17/30/5 19/31/5 5/32/5
f  20/37/5 13/38/5 16/39/5 7/40/5
f  6/33/5 18/34/5 21/35/5 22/36/5
f  4/41/5 20/42/5 22/43/5 1/44/5
f  16/49/5 9/50/5 12/51/5 21/52/5
f  14/9/6 3/10/6 2/11/6 23/12/6
f  10/45/6 15/46/6 23/47/6 11/48/6
